<svg xmlns="http://www.w3.org/2000/svg" xmlns:xlink="http://www.w3.org/1999/xlink" width="118" height="45" viewBox="0 0 118 45">
  <defs>
    <clipPath id="clip-path">
      <rect id="Rectangle_2453" data-name="Rectangle 2453" width="118" height="45" fill="#e6f9ff"/>
    </clipPath>
  </defs>
  <g id="Group_74065" data-name="Group 74065" transform="translate(-139.422 -25)">
    <g id="Group_314" data-name="Group 314" transform="translate(139.422 25)" clip-path="url(#clip-path)">
      <path id="Path_14306" data-name="Path 14306" d="M4477.621,2553.725v12.544h2.755V2541.18h-2.755Z" transform="translate(-4477.621 -2540.39)" fill="#57b8d9"/>
      <path id="Path_14307" data-name="Path 14307" d="M4513.855,2541.394a7.327,7.327,0,0,0-4.4,1.781,6.452,6.452,0,0,0-1.846,2.966,7.7,7.7,0,0,0-.113,2.57,5.474,5.474,0,0,0,3.267,4.154,17.936,17.936,0,0,0,4.6,1.3c1.849.424,2.217.508,2.843.706,2.955.989,4.317,2.685,4.119,5.085a5.383,5.383,0,0,1-1.5,3.5,6.114,6.114,0,0,1-4.917,1.7,9.646,9.646,0,0,1-4.346-1.215,16.789,16.789,0,0,1-3.068-2.006c-.256-.225-.483-.4-.513-.366s-.2.254-.425.507l-.371.453.257.226a16.994,16.994,0,0,0,3.3,2.231c3.152,1.639,6.108,1.921,8.749.849a6.554,6.554,0,0,0,4.149-6.612,5.946,5.946,0,0,0-.6-2.288,3.428,3.428,0,0,0-.881-1.243c-1.25-1.3-2.9-2.062-5.824-2.684a33.463,33.463,0,0,1-3.836-.905,6.221,6.221,0,0,1-2.785-1.637,3.915,3.915,0,0,1-.992-2.825,4.243,4.243,0,0,1,1.307-3.164,5.9,5.9,0,0,1,2.842-1.668,6.249,6.249,0,0,1,1.732-.169,5.539,5.539,0,0,1,1.732.169,12.2,12.2,0,0,1,4.8,2.317c.283.226.568.4.6.425a2.5,2.5,0,0,0,.455-.481l.369-.48-.255-.226a15.017,15.017,0,0,0-3.608-2.146A11.617,11.617,0,0,0,4513.855,2541.394Z" transform="translate(-4423.192 -2540.038)" fill="#706f6f"/>
      <path id="Path_14308" data-name="Path 14308" d="M4486.129,2553.659v12.262h1.308v-14.465h7.417v-1.272h-7.417v-7.543h13.5v-1.271h-14.8Z" transform="translate(-4461.952 -2540.042)" fill="#706f6f"/>
      <path id="Path_14309" data-name="Path 14309" d="M4492.139,2549.816c.028,7.741.028,8.476.142,8.984a9.09,9.09,0,0,0,.8,2.487,9.393,9.393,0,0,0,5.367,4.747,10,10,0,0,0,5.94,0,9.446,9.446,0,0,0,5.993-6.217c.37-1.355.343-.846.37-10.028l.029-8.42h-1.364v8.334c0,9.1,0,8.758-.4,9.974a7.427,7.427,0,0,1-2.046,3.276,7.629,7.629,0,0,1-4.032,2.146,8.96,8.96,0,0,1-3.014,0,8.087,8.087,0,0,1-6.336-6.385c-.113-.594-.113-.762-.14-8.983l-.029-8.363h-1.307Z" transform="translate(-4450.94 -2540.042)" fill="#706f6f"/>
      <path id="Path_14310" data-name="Path 14310" d="M4499.648,2549.816c.03,7.741.03,8.476.144,8.984a9.052,9.052,0,0,0,.824,2.487,9.322,9.322,0,0,0,5.368,4.747,9.9,9.9,0,0,0,5.91,0,9.45,9.45,0,0,0,6-6.217c.372-1.355.372-.846.372-10.028l.023-8.42h-1.361v8.334c0,9.1,0,8.758-.37,9.974a7.754,7.754,0,0,1-2.074,3.276,7.614,7.614,0,0,1-4.033,2.146,8.946,8.946,0,0,1-3.012,0,8.007,8.007,0,0,1-6.307-6.385c-.145-.594-.145-.762-.145-8.983l-.026-8.363h-1.309Z" transform="translate(-4437.058 -2540.042)" fill="#706f6f"/>
      <path id="Path_14311" data-name="Path 14311" d="M4513.938,2553.659v12.262h14.833v-1.243l-6.734-.029H4515.3l-.028-6.61v-6.583h11.848v-1.272h-11.848v-7.543h13.5v-1.271h-14.833Z" transform="translate(-4410.747 -2540.042)" fill="#706f6f"/>
      <path id="Path_14312" data-name="Path 14312" d="M4487.343,2543.168a9.11,9.11,0,0,0-4.687,2.2l-.369.339-.029-.2c-.028-.085-.111-.594-.2-1.1l-.113-.932h-2.386v19.268h2.754v-14.465l.483-.452a7.879,7.879,0,0,1,3.864-2.034,6.455,6.455,0,0,1,2.157-.114c1.423.283,2.474,1.5,2.987,3.447.341,1.3.341,1.272.369,7.657l.027,5.961h2.7v-6.357c-.027-6.215-.027-6.385-.171-7.119-.482-2.741-1.333-4.294-2.982-5.312A7.205,7.205,0,0,0,4487.343,2543.168Z" transform="translate(-4474.049 -2536.868)" fill="#57b8d9"/>
      <path id="Path_14313" data-name="Path 14313" d="M4491.988,2551.721a7.111,7.111,0,0,0-3.751,2.033,7.493,7.493,0,0,0,3.381,12.432,5.629,5.629,0,0,0,1.762.141,4.836,4.836,0,0,0,1.792-.169,7.319,7.319,0,0,0,4.885-4.182,11.014,11.014,0,0,0,.6-2.118l.029-.228h64.466v-1.27h-64.466l-.029-.256a7.655,7.655,0,0,0-1.535-3.672,7.217,7.217,0,0,0-4.461-2.741A9.387,9.387,0,0,0,4491.988,2551.721Zm2.84,1.329a7.876,7.876,0,0,1,2.387,1.214,6.5,6.5,0,0,1,2.019,3.3,7.293,7.293,0,0,1,.056,2.6,6.024,6.024,0,0,1-9.944,3.335,6.748,6.748,0,0,1-1.818-3.08,6.631,6.631,0,0,1,.057-2.993,6.107,6.107,0,0,1,4.772-4.464A7.266,7.266,0,0,1,4494.828,2553.05Z" transform="translate(-4461.955 -2521.35)" fill="#706f6f"/>
      <path id="Path_14314" data-name="Path 14314" d="M4521.356,2566.33a7.36,7.36,0,1,0-7.418-7.346A7.376,7.376,0,0,0,4521.356,2566.33Z" transform="translate(-4410.747 -2521.351)" fill="#ffd854"/>
    </g>
  </g>
</svg>
